<svg width="390" height="260" viewBox="0 0 390 260" fill="none" xmlns="http://www.w3.org/2000/svg">
<path d="M291.751 52.6658L291.761 52.6661C291.775 52.6667 291.79 52.6634 291.803 52.6567L291.81 52.653C293.013 52.0428 294.249 51.499 295.512 51.0242C296.765 50.5481 298.063 50.087 299.325 49.7171L299.223 49.732L299.241 49.7325C299.273 49.7334 299.304 49.7294 299.334 49.7204L299.359 49.7127C306.028 47.6208 312.953 46.4545 319.939 46.2465C323.421 46.1433 326.906 46.2544 330.375 46.5792L340.887 47.4673C347.897 48.0329 354.921 48.4372 361.941 48.8841C368.963 49.3096 375.982 49.771 382.991 50.3547L382.841 49.8178C381.601 50.7191 380.466 51.7573 379.459 52.913C378.462 54.0824 377.613 55.3696 376.929 56.7459C376.268 58.1313 375.744 59.578 375.365 61.0655C375.006 62.556 374.775 64.0747 374.676 65.6047C374.505 68.6625 374.711 71.7297 375.288 74.7375C375.834 77.7584 376.691 80.7149 377.845 83.5597L378.679 82.4853C373.748 81.5536 368.818 80.6137 363.88 79.7182L349.071 76.9996L349.88 77.7288L349.773 77.411L349.806 77.4974C349.089 75.2306 347.614 73.2799 345.627 71.9736C343.653 70.6707 341.312 70.0387 338.95 70.1715C336.578 70.3239 334.328 71.275 332.566 72.87C332.336 73.0544 332.128 73.2651 331.947 73.4978L331.375 74.1703C331.032 74.6442 330.716 75.1368 330.428 75.646C330.154 76.151 329.967 76.6703 329.734 77.1823C329.626 77.4398 329.508 77.6946 329.408 77.9544L329.164 78.7481C327.985 82.9457 327.532 87.3138 327.824 91.664C328.018 95.9554 328.62 100.219 329.623 104.396L330.363 103.653L320.408 101.571L310.433 99.5768C310.408 99.5718 310.382 99.5767 310.36 99.5906C310.339 99.6045 310.324 99.6263 310.318 99.6513C310.312 99.6762 310.317 99.7024 310.33 99.7243C310.343 99.7462 310.365 99.762 310.389 99.7683L320.228 102.349L330.084 104.855C330.183 104.88 330.287 104.88 330.386 104.854C330.485 104.829 330.576 104.779 330.65 104.709C330.725 104.639 330.781 104.551 330.812 104.454C330.844 104.356 330.851 104.253 330.832 104.152L330.824 104.112C330.028 99.9897 329.574 95.8088 329.466 91.6119C329.287 87.4696 329.814 83.327 331.023 79.3613L331.257 78.6369C331.35 78.4032 331.46 78.1779 331.56 77.9479C331.772 77.4981 331.95 77.0139 332.187 76.5917C332.456 76.1996 332.666 75.7633 332.971 75.4022L333.437 74.8689C333.581 74.6815 333.749 74.5145 333.937 74.3722C335.364 73.1148 337.174 72.3752 339.073 72.2729C340.981 72.1634 342.873 72.6706 344.471 73.7196C346.062 74.7691 347.252 76.3245 347.849 78.1343L347.882 78.2212C347.887 78.246 347.895 78.2702 347.905 78.2933L347.971 78.4433C348.038 78.5934 348.141 78.7247 348.27 78.8258C348.4 78.9268 348.552 78.9945 348.714 79.0228L363.559 81.5359C368.505 82.3844 373.459 83.1884 378.412 84.0007C378.55 84.0232 378.691 84.0083 378.82 83.9574C378.95 83.9065 379.063 83.8216 379.149 83.7116C379.234 83.6016 379.289 83.4706 379.306 83.3323C379.323 83.1941 379.303 83.0538 379.247 82.9261C378.07 80.2066 377.152 77.3822 376.506 74.4903C375.833 71.594 375.531 68.6242 375.606 65.6519C375.655 64.1703 375.83 62.6957 376.131 61.2442C376.45 59.7981 376.929 58.3921 377.56 57.0523C378.202 55.719 379.006 54.4696 379.953 53.3319C380.915 52.2027 382.001 51.1855 383.19 50.2993L383.198 50.2929C383.245 50.2562 383.28 50.206 383.299 50.149C383.317 50.092 383.318 50.0308 383.301 49.9735C383.283 49.9161 383.249 49.8653 383.203 49.8276C383.156 49.7899 383.1 49.7671 383.04 49.7623C376.03 49.1928 369.029 48.5052 362.033 47.7738C355.034 47.0651 348.039 46.3138 341.031 45.7237L330.515 44.8785C326.975 44.5765 323.419 44.5221 319.872 44.7155C316.326 44.9119 312.8 45.3751 309.324 46.1013C305.851 46.804 302.44 47.783 299.123 49.0289L299.241 49.0092L299.223 49.0097L299.195 49.0105C299.169 49.0113 299.144 49.0161 299.12 49.0246C297.805 49.4941 296.575 50.0159 295.324 50.5751C294.079 51.1308 292.873 51.7678 291.712 52.482L291.76 52.469L291.751 52.4693C291.726 52.4703 291.702 52.4811 291.684 52.4994C291.667 52.5177 291.657 52.5422 291.657 52.5676C291.657 52.593 291.667 52.6174 291.684 52.6357C291.702 52.654 291.726 52.6648 291.751 52.6658Z" fill="url(#paint0_linear_111_76)"/>
<path d="M248.763 78.8661C249.323 76.0596 250.448 73.3961 252.068 71.0372C252.877 69.9063 253.807 68.8675 254.842 67.9393C255.89 67.0235 257.013 66.1976 258.2 65.4705C260.638 64.0452 263.238 62.9195 265.946 62.1178C268.692 61.2863 271.499 60.6749 274.342 60.2892L274.397 60.2838C275.368 60.013 276.336 59.7239 277.301 59.4163C276.289 59.4661 275.282 59.5381 274.277 59.6267L274.332 59.6214C271.363 59.4917 268.391 59.7746 265.5 60.462C262.565 61.1232 259.756 62.2585 257.186 63.8233C254.565 65.4025 252.383 67.6151 250.84 70.2578C249.357 72.8766 248.637 75.8589 248.763 78.8661Z" fill="url(#paint1_linear_111_76)"/>
<path d="M341.812 70.772C340.1 70.1093 338.368 69.5323 336.625 69.0091C334.884 68.4786 333.133 67.9888 331.374 67.5397C329.619 67.0668 327.845 66.6811 326.078 66.2642C324.302 65.8915 322.529 65.5018 320.739 65.1887L320.325 65.1164L320.065 65.3149C319.331 65.8819 318.654 66.5187 318.043 67.2164C317.437 67.8803 316.88 68.5876 316.376 69.3325C315.872 70.0684 315.419 70.8384 315.021 71.6371C314.621 72.4271 314.282 73.2471 314.008 74.0895C314.52 73.372 315.048 72.6774 315.592 72.0058C316.143 71.3352 316.699 70.6661 317.279 70.0589C317.871 69.4433 318.476 68.8477 319.106 68.2869C319.72 67.7462 320.364 67.2395 321.034 66.7691L320.361 66.8953C322.116 67.3656 323.887 67.7603 325.653 68.1784C327.43 68.5506 329.2 68.9539 330.989 69.2701C332.772 69.6128 334.565 69.912 336.367 70.1678C338.168 70.4337 339.98 70.6457 341.812 70.772Z" fill="url(#paint2_linear_111_76)"/>
<path d="M366.735 48.7195C364.636 50.6604 362.985 53.0344 361.895 55.6771C360.756 58.3192 360.037 61.1234 359.765 63.9878C359.537 66.8452 359.713 69.7205 360.286 72.5291C360.355 72.8782 360.408 73.2298 360.491 73.5752L360.784 74.6008L361.399 76.6344C361.896 77.9599 362.478 79.2524 363.088 80.5135C362.89 79.1067 362.562 77.7581 362.333 76.3936L362.045 74.343L361.887 73.3265C361.844 72.9867 361.831 72.6427 361.802 72.3019C361.754 71.6185 361.7 70.9386 361.628 70.2617C361.577 69.583 361.604 68.9006 361.588 68.2225C361.557 66.8684 361.601 65.5136 361.72 64.1644C361.97 61.4666 362.507 58.8032 363.323 56.2197C364.145 53.5878 365.291 51.0684 366.735 48.7195Z" fill="url(#paint3_linear_111_76)"/>
<path d="M313.478 69.1644C312.01 68.6162 310.532 68.0772 309.045 67.5661C309.128 68.1729 309.171 68.7843 309.175 69.3967C310.448 69.7963 311.731 70.1773 313.023 70.549C313.896 70.7999 314.77 71.0509 315.652 71.3017C315.773 71.1159 315.894 70.9393 316.015 70.772C316.136 70.5955 316.266 70.4282 316.377 70.2702C315.411 69.8893 314.444 69.5268 313.478 69.1644Z" fill="url(#paint4_linear_111_76)"/>
<path d="M298.833 66.0234C299.966 66.4137 301.081 66.8041 302.215 67.185H302.224C302.577 66.626 302.989 66.1058 303.451 65.6332L303.033 65.4937C301.778 65.0849 300.524 64.676 299.269 64.2764C299.121 64.9083 298.963 65.4937 298.833 66.0234Z" fill="url(#paint5_linear_111_76)"/>
<path d="M305.217 59.8995C303.349 59.2955 301.481 58.6914 299.604 58.106C299.807 58.7298 299.904 59.3831 299.892 60.0389C301.462 60.5965 303.051 61.1261 304.631 61.6651C308.135 62.8081 311.657 63.9326 315.206 64.9455C316.851 65.4287 318.505 65.8902 320.169 66.3301C322.083 66.8412 323.997 67.3245 325.94 67.7426C325.168 67.3988 324.397 67.0549 323.616 66.7204C323.607 66.7204 323.607 66.7204 323.598 66.7111C320.977 65.596 318.319 64.5645 315.662 63.5701C312.205 62.2692 308.711 61.0797 305.217 59.8995Z" fill="url(#paint6_linear_111_76)"/>
<path d="M290.599 56.6099C290.757 56.6749 290.915 56.74 291.073 56.7957C291.479 56.4558 291.937 56.1829 292.43 55.9873C291.928 55.8479 291.426 55.7085 290.924 55.5691C290.804 55.9594 290.692 56.3125 290.599 56.6099Z" fill="url(#paint7_linear_111_76)"/>
<path d="M378.544 83.2394C399.524 64.0909 383.012 50.0623 383.012 50.0623C368.349 60.6802 378.544 83.2394 378.544 83.2394Z" fill="url(#paint8_linear_111_76)"/>
<path d="M330.225 104.25C347.537 109.414 348.892 78.0098 348.892 78.0098C348.871 77.9453 348.851 77.8813 348.83 77.8178C346.227 69.822 335.07 68.7878 331.221 76.264C326.005 86.3949 330.225 104.25 330.225 104.25Z" fill="url(#paint9_linear_111_76)"/>
<path d="M317.166 100.5C320.034 107.565 322.967 114.557 325.666 121.614C328.425 128.584 330.75 135.718 332.627 142.975C333.07 144.756 333.41 146.561 333.646 148.381C333.902 150.143 333.894 151.933 333.623 153.693C333.48 154.52 333.199 155.318 332.792 156.052C332.377 156.75 331.801 157.339 331.113 157.77C329.542 158.567 327.755 158.834 326.02 158.532C322.334 157.893 318.788 156.615 315.54 154.758C314.716 154.301 313.89 153.85 313.075 153.373L310.667 151.875C309.043 150.911 307.52 149.783 305.961 148.724C304.408 147.654 302.931 146.475 301.417 145.36L299.217 143.587C298.485 142.997 297.732 142.435 297.026 141.813C295.606 140.579 294.129 139.421 292.748 138.146L290.643 136.277L288.593 134.349C285.869 131.769 283.249 129.086 280.733 126.302C278.199 123.539 275.768 120.684 273.393 117.781C268.633 111.961 264.201 105.881 260.117 99.5684C258.068 96.4059 256.102 93.1845 254.218 89.9042C252.332 86.6269 250.528 83.2883 248.884 79.8663L248.513 79.9978C250.737 87.3443 253.735 94.4339 257.456 101.148C261.128 107.913 265.367 114.356 270.127 120.406C274.938 126.433 280.28 132.017 286.088 137.091L288.267 138.986L290.509 140.809C291.993 142.034 293.546 143.174 295.099 144.309C296.655 145.44 298.27 146.49 299.871 147.55C301.519 148.544 303.124 149.596 304.799 150.534C306.473 151.475 308.124 152.445 309.83 153.316C311.522 154.211 313.209 155.112 314.937 155.948C318.38 157.727 322.052 159.021 325.849 159.795C327.874 160.222 329.981 160.01 331.88 159.187C332.86 158.695 333.709 157.976 334.354 157.088C334.96 156.211 335.423 155.243 335.725 154.22C336.261 152.259 336.496 150.228 336.423 148.196C336.369 146.226 336.172 144.262 335.832 142.321C335.138 138.506 334.12 134.757 332.79 131.115C331.515 127.48 330.058 123.928 328.476 120.44C327.702 118.689 326.86 116.97 326.012 115.256C325.171 113.539 324.284 111.845 323.372 110.166C321.553 106.806 319.635 103.5 317.512 100.314L317.166 100.5Z" fill="url(#paint10_linear_111_76)"/>
<path d="M363.354 54.1322C358.002 53.3269 352.636 52.7148 347.265 52.1708C341.894 51.6145 336.516 51.1728 331.135 50.7533C325.752 50.3705 320.367 50.0122 314.974 49.7679C309.581 49.5115 304.183 49.3246 298.771 49.3324C304.123 50.1402 309.489 50.7533 314.86 51.2968C320.23 51.8525 325.609 52.2942 330.99 52.7113C336.373 53.0918 341.758 53.4501 347.152 53.6937C352.544 53.9496 357.942 54.1376 363.354 54.1322Z" fill="url(#paint11_linear_111_76)"/>
<path d="M297.624 144.286C298.394 137.461 299.134 130.625 299.797 123.782L300.178 119.933C300.19 119.833 300.194 119.703 300.214 119.627C300.237 119.566 300.256 119.504 300.271 119.441C300.335 119.269 300.408 119.101 300.49 118.937C301.248 117.5 302.243 116.063 303.167 114.628C305.051 111.756 306.868 108.812 308.493 105.747C309.296 104.209 310.054 102.641 310.715 101.023C311.37 99.384 311.919 97.7523 312.488 96.1412C313.629 92.9062 314.761 89.6681 315.851 86.4152L317.918 80.3241C318.079 79.8631 318.187 79.3852 318.24 78.8997C318.355 77.9122 318.216 76.9116 317.835 75.9931C317.457 75.0154 316.737 74.2079 315.808 73.7202C314.849 73.2989 313.766 73.2554 312.776 73.5986C311.073 74.2375 309.519 75.2183 308.21 76.4807L309.232 77.0545C309.468 75.3974 309.62 73.7293 309.686 72.0567C309.719 71.222 309.724 70.378 309.69 69.5425C309.62 68.7002 309.586 67.8442 309.444 67.0083C309.321 66.118 309.004 65.2658 308.513 64.5129C308.22 64.09 307.789 63.7835 307.293 63.6467C306.817 63.549 306.323 63.5762 305.861 63.7257C304.192 64.2931 302.791 65.457 301.928 66.9939L302.224 66.8323H302.215L302.023 66.8334L301.921 66.9907C301.35 67.9056 300.833 68.8532 300.373 69.8287C300.16 70.2925 299.909 70.7384 299.624 71.162C299.448 71.3703 299.451 71.3674 299.201 71.3819C299.122 71.3899 299.043 71.3736 298.974 71.3353C298.905 71.297 298.849 71.2385 298.815 71.1677C298.641 70.7227 298.572 70.2441 298.611 69.7682C298.625 69.2463 298.666 68.7255 298.734 68.208C298.867 67.1618 299.073 66.1262 299.351 65.1086C299.633 64.0726 299.861 63.0223 300.033 61.9623C300.228 60.8781 300.244 59.7691 300.078 58.6801C299.974 58.1155 299.764 57.5756 299.46 57.0889C299.14 56.5968 298.703 56.1913 298.189 55.9086C297.173 55.4116 296.044 55.1939 294.916 55.2778L294.974 55.2805C294.493 55.2342 294.009 55.2502 293.532 55.328C293.06 55.4042 292.599 55.5347 292.157 55.717C291.263 56.0914 290.489 56.7026 289.917 57.4847L289.953 57.4429C289.878 57.5217 289.835 57.6247 289.831 57.7329L289.838 59.3175L290.574 57.889L290.583 57.8714L290.599 57.8269C291.9 54.377 292.777 50.7817 293.21 47.12C293.301 46.1714 293.288 45.2155 293.171 44.2697C293.083 43.2151 292.626 42.2252 291.88 41.4742C291.445 41.0975 290.913 40.8503 290.344 40.7605C289.794 40.6961 289.235 40.753 288.709 40.9272C287.767 41.28 286.908 41.8195 286.18 42.5132C284.814 43.8112 283.614 45.2728 282.606 46.8649C281.591 48.4118 280.657 50.0112 279.81 51.6565C278.046 54.919 276.654 58.3694 275.66 61.9428C274.713 65.4809 273.819 68.9866 272.605 72.3698C271.38 75.711 269.902 79.0731 267.55 81.5098C266.459 82.7054 264.996 83.4979 263.399 83.7594C262.579 83.8448 261.751 83.8112 260.94 83.6595C260.076 83.5404 259.221 83.365 258.38 83.1343C256.693 82.6774 255.067 82.0216 253.535 81.1808C252.019 80.353 250.619 79.3294 249.371 78.1366L248.367 77.1405L247.833 78.3594C247.254 79.7287 246.902 81.1834 246.791 82.6661C246.671 84.1037 246.722 85.5505 246.945 86.9759C247.417 89.796 248.438 92.4963 249.949 94.924C250.699 96.1571 251.611 97.2836 252.662 98.2734C253.731 99.2228 254.898 100.055 256.144 100.756C257.37 101.445 258.626 102.017 259.777 102.659C260.902 103.203 261.864 104.033 262.567 105.065C263.153 106.184 263.463 107.427 263.471 108.69C263.561 110.034 263.612 111.389 263.628 112.749C263.662 115.468 263.609 118.196 263.512 120.922C263.407 123.649 263.301 126.377 263.125 129.102C262.932 131.822 262.781 134.561 262.324 137.241L262.505 137.283C263.088 134.593 263.359 131.868 263.675 129.149C263.963 126.427 264.226 123.701 264.405 120.968C264.586 118.235 264.724 115.498 264.774 112.751C264.8 111.377 264.789 109.998 264.742 108.613C264.765 107.136 264.431 105.674 263.768 104.353C262.962 103.094 261.839 102.068 260.511 101.38C259.287 100.669 258.062 100.084 256.918 99.4109C255.792 98.7496 254.739 97.9706 253.778 97.0869C252.855 96.1817 252.057 95.1563 251.407 94.0385C250.064 91.7855 249.173 89.2924 248.783 86.6986C248.588 85.4204 248.547 84.1236 248.659 82.8356C248.759 81.5881 249.051 80.3636 249.526 79.2056L247.988 79.4283C250.759 82.0906 254.159 84.0083 257.871 85.003C258.788 85.2582 259.72 85.4534 260.663 85.5875C261.144 85.6395 261.585 85.7298 262.1 85.7486L262.873 85.7719C263.131 85.7566 263.39 85.7267 263.648 85.7024C265.687 85.4004 267.559 84.4037 268.947 82.881C271.652 79.992 273.094 76.453 274.342 72.9832C275.556 69.4842 276.427 65.9022 277.329 62.3876C277.559 61.5121 277.788 60.6404 278.065 59.8141C278.348 58.9716 278.667 58.1322 278.999 57.2976C279.667 55.6281 280.403 53.979 281.206 52.3667C281.999 50.7539 282.876 49.184 283.834 47.6636C284.755 46.1559 285.849 44.7612 287.095 43.5082C287.672 42.9209 288.36 42.4539 289.119 42.1342C289.457 42.0112 289.817 41.9606 290.176 41.9856C290.514 42.0308 290.832 42.1677 291.098 42.3815C291.647 42.9371 291.988 43.665 292.063 44.4426C292.193 45.305 292.228 46.1791 292.167 47.0491C291.829 50.6484 291.053 54.193 289.856 57.6042L289.881 57.5424L289.872 57.561L290.605 57.7354C290.607 57.7825 290.598 57.8292 290.58 57.8728C290.562 57.9164 290.536 57.9558 290.502 57.9885L290.538 57.9465C291.014 57.2559 291.671 56.7097 292.437 56.3678C293.206 56.0298 294.047 55.8865 294.885 55.9505L294.921 55.954L294.943 55.9533C295.949 55.8662 296.961 56.0461 297.875 56.4749C298.299 56.717 298.663 57.0519 298.94 57.4547C299.216 57.8574 299.398 58.3175 299.471 58.8004C299.632 59.8203 299.624 60.8596 299.449 61.877C299.289 62.9211 299.074 63.956 298.805 64.9774C298.52 66.0147 298.301 67.0688 298.149 68.1334C298.071 68.6708 298.022 69.212 298.002 69.7546C297.947 70.3431 298.039 70.936 298.269 71.4804C298.364 71.6386 298.497 71.7709 298.655 71.8654C298.814 71.9599 298.993 72.0137 299.178 72.022C299.362 72.0304 299.546 71.9929 299.712 71.9131C299.879 71.8333 300.023 71.7135 300.132 71.5645C300.451 71.1108 300.73 70.6309 300.968 70.1299C301.428 69.1839 301.943 68.2656 302.509 67.3795L302.215 67.5378L302.416 67.539L302.521 67.376C303.293 66.0018 304.559 64.9732 306.062 64.4994C306.368 64.3673 306.711 64.3478 307.03 64.4443C307.349 64.5407 307.624 64.747 307.805 65.0266C308.19 65.6798 308.429 66.4083 308.507 67.1624C308.617 67.9582 308.621 68.7593 308.666 69.562C308.674 70.3771 308.645 71.1852 308.589 71.9991C308.475 73.6244 308.279 75.243 308.004 76.8488L307.719 78.5039L309.025 77.4227C310.225 76.3267 311.632 75.4824 313.163 74.9397C313.816 74.7207 314.527 74.7558 315.155 75.038C315.741 75.392 316.188 75.9378 316.418 76.5831C316.69 77.2618 316.784 77.9988 316.69 78.7241C316.647 79.0922 316.562 79.4541 316.436 79.8028L314.31 85.8822C313.163 89.1203 312.059 92.3731 310.965 95.629C310.411 97.2613 309.881 98.8906 309.28 100.446C308.66 102.013 307.941 103.548 307.172 105.061C305.627 108.087 303.834 110.991 302.034 113.91C301.144 115.388 300.21 116.801 299.41 118.424C299.305 118.647 299.216 118.876 299.14 119.109C299.105 119.255 299.074 119.402 299.048 119.549C299.028 119.683 299.029 119.77 299.019 119.883L298.747 123.729C298.25 130.568 297.83 137.413 297.439 144.27L297.624 144.286Z" fill="url(#paint12_linear_111_76)"/>
<path d="M286.427 67.742L290.65 57.901L289.781 57.572L286.427 67.742Z" fill="url(#paint13_linear_111_76)"/>
<path d="M148.831 34.1235C152.256 35.575 155.826 36.7954 159.402 37.9151C162.996 39.0233 166.648 39.9316 170.343 40.6358C174.057 41.3962 177.84 41.7731 181.632 41.7605C183.555 41.743 185.473 41.5462 187.36 41.1727C189.305 40.8022 191.166 40.0819 192.853 39.0467L192.771 39.0938C195.608 37.6784 198.459 36.293 201.28 34.8462L202.221 34.3635L201.655 33.5483C201.587 33.4389 201.502 33.3411 201.402 33.2587C201.355 33.2139 201.304 33.1729 201.25 33.1361C201.164 33.0773 201.064 33.0004 200.988 32.9606C200.831 32.8746 200.664 32.7683 200.515 32.7046C200.208 32.5531 199.905 32.4233 199.607 32.3099C199.007 32.0762 198.412 31.869 197.815 31.6918C196.623 31.3138 195.423 31.028 194.224 30.7475C191.827 30.1944 189.42 29.7266 187.006 29.3441C184.594 28.9386 182.177 28.5827 179.759 28.2544C177.342 27.912 174.919 27.6267 172.499 27.3236L172.827 27.504L167.877 21.8394C166.224 19.9487 164.632 18.0293 162.923 16.1596C159.472 12.4603 155.474 9.31236 151.069 6.82576C148.858 5.59647 146.561 4.52941 144.196 3.63301C141.821 2.76105 139.39 2.04791 136.921 1.4983C131.972 0.239677 126.844 -0.166741 121.759 0.29649C116.611 0.932651 111.704 2.84527 107.484 5.86049C103.286 8.92015 99.8664 12.9239 97.5008 17.5487C96.3295 19.8592 95.4163 22.2918 94.7776 24.8023L94.3634 26.7C94.2483 27.3285 94.1374 27.9524 94.0417 28.5825C93.8412 29.8393 93.6782 31.1032 93.5528 32.3741C93.2806 34.9253 93.2183 37.4946 93.3667 40.056C93.5049 42.6565 93.9791 45.2283 94.7775 47.7071L95.0985 48.671L109.179 44.4384L122.324 40.6114C126.706 39.3359 131.099 38.0982 135.511 36.9427C137.713 36.348 139.923 35.7872 142.14 35.2604C143.253 35.0296 144.36 34.7318 145.48 34.5554L147.159 34.2545L148.831 34.1235ZM148.876 33.9226L147.126 33.9408L145.416 34.1362C144.271 34.2569 143.154 34.4966 142.02 34.6714C139.768 35.0846 137.521 35.5268 135.288 36.0202C130.822 37.0113 126.377 38.0845 121.942 39.1954C117.506 40.3034 113.096 41.5024 108.683 42.6933C104.274 43.8991 99.8634 45.0903 95.4722 46.3732L96.7631 47.0453C95.29 42.4761 95.3004 37.4668 95.7438 32.5898C95.8615 31.3649 96.0172 30.1424 96.2111 28.9223C96.3025 28.3128 96.4102 27.702 96.5199 27.0976L96.9052 25.3207C97.4771 22.9618 98.3041 20.6722 99.3717 18.4924C101.538 14.1215 104.7 10.3207 108.604 7.39622C112.543 4.49474 117.132 2.60012 121.971 1.87733C126.882 1.29702 131.856 1.53556 136.689 2.5832C141.594 3.45745 146.328 5.10517 150.716 7.46479C155.103 9.84278 159.065 12.9313 162.442 16.6049C165.726 20.3534 168.856 24.3032 172.028 28.178L172.148 28.3247L172.356 28.3587C174.758 28.7499 177.162 29.1263 179.556 29.5532C181.952 29.9662 184.343 30.4065 186.719 30.8942C189.098 31.3763 191.466 31.8921 193.807 32.4712C194.975 32.7637 196.137 33.0826 197.268 33.4375C197.838 33.6083 198.393 33.8061 198.926 34.0157C199.197 34.1195 199.453 34.2312 199.692 34.3508C199.824 34.4072 199.911 34.4713 200.022 34.5293C200.063 34.5533 200.102 34.5795 200.14 34.6078C200.161 34.6213 200.178 34.6335 200.166 34.626C200.153 34.604 200.2 34.6799 200.074 34.4977L200.449 33.2001C197.61 34.6107 194.802 36.0827 191.979 37.5247L191.934 37.5477L191.896 37.572C188.966 39.4811 185.22 40.0312 181.595 40.1613C179.755 40.2063 177.914 40.1519 176.08 39.9983C174.237 39.8655 172.395 39.6429 170.562 39.3569C166.888 38.8074 163.255 37.9738 159.636 37.0775C156.013 36.1675 152.45 35.1097 148.876 33.9226Z" fill="url(#paint14_linear_111_76)"/>
<path d="M126.186 5.83305C127.946 7.90039 129.748 9.90983 131.559 11.9084L136.988 17.8947C138.797 19.8866 140.591 21.8909 142.371 23.9076C144.139 25.9367 145.887 27.9778 147.623 30.0666C146.334 27.6741 144.856 25.3883 143.203 23.2311C141.577 21.0553 139.81 18.9952 138.005 16.9728C136.176 14.9718 134.29 13.0261 132.324 11.1627C130.372 9.28095 128.323 7.50198 126.186 5.83305Z" fill="url(#paint15_linear_111_76)"/>
<path d="M116.789 6.82217C115.334 9.46293 114.047 12.1931 112.936 14.9962C111.807 17.7918 110.82 20.6418 109.976 23.5463C109.14 26.4526 108.488 29.4088 108.023 32.3973C107.562 35.3886 107.433 38.4219 107.64 41.4416C107.965 38.4678 108.445 35.513 109.078 32.5891C109.721 29.6779 110.476 26.7937 111.296 23.9257C112.106 21.0537 113.024 18.2106 113.939 15.3618C114.882 12.5222 115.811 9.67138 116.789 6.82217Z" fill="url(#paint16_linear_111_76)"/>
<path d="M172.427 27.8411C170.804 27.8635 169.183 27.9771 167.572 28.1812C165.965 28.3619 164.373 28.6216 162.784 28.8967C161.2 29.1969 159.618 29.5142 158.051 29.9102C156.471 30.2858 154.914 30.7509 153.387 31.303C155.011 31.2823 156.632 31.1694 158.243 30.9649C159.849 30.7839 161.441 30.5241 163.03 30.2475C164.614 29.9455 166.196 29.6282 167.763 29.2319C169.342 28.8559 170.9 28.3916 172.427 27.8411Z" fill="url(#paint17_linear_111_76)"/>
<path d="M172.427 40.313C172.402 41.692 172.475 43.0686 172.573 44.4474C172.661 45.839 172.86 47.2214 173.166 48.5817C173.318 49.3166 173.595 50.0199 173.985 50.6607C174.337 51.1852 174.679 51.7983 175.019 52.3819C175.706 53.561 176.369 54.7607 177.03 55.9595C178.368 58.3498 179.683 60.752 180.976 63.166C181.611 64.3775 182.268 65.5777 182.875 66.7963C183.181 67.4044 183.471 68.0181 183.754 68.6274C183.893 68.9328 184.025 69.2392 184.139 69.5412C184.19 69.6892 184.251 69.8449 184.281 69.9771C184.3 70.0328 184.313 70.0905 184.319 70.1492C184.321 70.1602 184.331 70.2155 184.33 70.1912C184.33 70.1681 184.336 70.1454 184.347 70.1252C184.359 70.105 184.375 70.088 184.394 70.0759L184.647 69.8988C184.178 70.0102 183.696 70.0556 183.214 70.0337C182.7 70.0133 182.189 69.9445 181.687 69.8281C181.177 69.7084 180.674 69.5572 180.182 69.3753C179.686 69.1859 179.2 68.9695 178.727 68.727L178.657 68.6921L178.611 68.7012C178.129 68.7925 177.676 69.002 177.295 69.3109C176.93 69.6181 176.669 70.0308 176.549 70.4922C176.729 70.0746 177.035 69.7232 177.423 69.4859C177.792 69.2527 178.213 69.1128 178.648 69.0784L178.533 69.0526C179.444 69.6847 180.44 70.1856 181.491 70.5406C182.031 70.7147 182.585 70.8375 183.148 70.9072C183.743 70.9896 184.348 70.9696 184.936 70.8481L185.105 70.8106L185.189 70.6709C185.254 70.5588 185.3 70.436 185.324 70.3081C185.331 70.2371 185.332 70.1655 185.326 70.0944C185.323 69.9815 185.308 69.8692 185.281 69.7595C185.244 69.5726 185.196 69.3879 185.139 69.206C185.032 68.8581 184.912 68.5255 184.786 68.197C184.536 67.5408 184.253 66.9058 183.967 66.2747C183.39 65.0151 182.793 63.7705 182.154 62.5483C180.899 60.0931 179.557 57.6888 178.174 55.3066C177.471 54.1212 176.757 52.9442 176.019 51.7744C175.643 51.1872 175.275 50.6225 174.828 50.0293C174.482 49.5069 174.221 48.9332 174.054 48.3295C173.32 45.7 172.776 43.0208 172.427 40.313Z" fill="url(#paint18_linear_111_76)"/>
<path d="M168.966 73.9178C172.922 67.8182 178.63 70.4921 178.63 70.4921C178.63 70.4921 180.835 100.789 167.317 101.613C157.029 102.241 148.177 95.9934 141.953 89.266C138.729 85.7643 136.689 81.3369 136.122 76.6112C135.277 69.7106 134.009 59.2857 133.687 56.2784C133.192 51.6625 131.322 39.5764 124.62 40.313C124.62 40.313 110.607 40.4524 117.861 64.686C117.861 64.686 119.839 79.8525 106.98 78.0391C106.98 78.0391 109.618 70.4558 106.156 64.686C102.694 58.9161 98.1428 51.6215 98.3578 46.614C98.3578 46.614 143.743 33.1989 148.853 34.0231C145.708 35.6835 143.178 38.3089 141.635 41.5135C140.092 44.7181 139.617 48.3331 140.281 51.8274C141.789 61.627 149.041 74.7777 152.406 80.4801C152.94 81.3897 153.71 82.1377 154.635 82.6446C155.559 83.1514 156.604 83.3982 157.658 83.3587C159.607 83.2803 161.843 82.995 162.907 82.1605C165.009 80.5119 168.966 73.9178 168.966 73.9178Z" fill="url(#paint19_linear_111_76)"/>
<path d="M169.451 44.8546C168.487 44.1127 167.384 43.5718 166.208 43.2642C165.011 42.9275 163.76 42.8231 162.524 42.9569C161.26 43.108 160.057 43.5872 159.036 44.3467C158.043 45.0881 157.281 46.0959 156.838 47.2531C157.672 46.4701 158.603 45.7978 159.609 45.2529C160.573 44.7605 161.618 44.4443 162.694 44.3192C163.795 44.1971 164.907 44.1951 166.008 44.3133C167.134 44.431 168.273 44.6158 169.451 44.8546Z" fill="url(#paint20_linear_111_76)"/>
<path d="M130.555 61.7186C128.344 62.5852 125.787 62.4874 124.15 61.0366C123.325 60.305 122.666 59.405 122.218 58.3972C121.735 57.3612 121.349 56.2831 121.063 55.1765C120.426 52.945 120.049 50.6472 119.94 48.329C119.889 47.1655 119.919 45.9999 120.028 44.8403C120.082 44.2574 120.167 43.6776 120.281 43.1033C120.332 42.8129 120.406 42.5302 120.483 42.2453C120.543 41.9571 120.661 41.6838 120.828 41.4416C120.414 41.8859 120.103 42.4158 119.916 42.9937C119.695 43.5584 119.511 44.1365 119.363 44.7246C119.082 45.907 118.917 47.1138 118.868 48.3281C118.78 50.7647 119.074 53.2001 119.741 55.5455C120.401 57.8239 121.362 60.3458 123.505 61.8873C124.558 62.6418 125.842 63.0065 127.134 62.9189C128.363 62.8376 129.545 62.4226 130.555 61.7186Z" fill="url(#paint21_linear_111_76)"/>
<path d="M146.547 93.6655C145.739 94.159 144.991 94.7462 144.321 95.4148C143.646 96.0648 143.025 96.7674 142.462 97.516C141.891 98.2717 141.398 99.084 140.993 99.94C140.52 100.802 140.329 101.791 140.446 102.767C140.842 101.952 141.335 101.187 141.913 100.49C142.457 99.7736 143.027 99.0701 143.562 98.3381C144.106 97.6114 144.635 96.8673 145.142 96.098C145.669 95.3227 146.139 94.5096 146.547 93.6655Z" fill="url(#paint22_linear_111_76)"/>
<path d="M106.98 78.0391C106.107 79.3903 105.311 80.7901 104.597 82.2318C104.236 82.9212 103.879 83.6017 103.477 84.2501C103.08 84.9329 102.595 85.5605 102.035 86.117C102.907 85.9954 103.71 85.5753 104.308 84.9283C104.918 84.3292 105.427 83.6342 105.813 82.8708C106.2 82.1295 106.499 81.3449 106.702 80.5332C106.924 79.7214 107.018 78.88 106.98 78.0391Z" fill="url(#paint23_linear_111_76)"/>
<path d="M86.8644 74.5728C86.8644 74.5728 102.764 75.7344 105.45 82.0814L104.967 82.9921L103.192 82.0814C94.661 77.8346 89.838 83.4753 95.7668 84.4696C101.705 85.4546 137.064 101.652 137.064 101.652C152.397 105.992 161.383 129.307 161.383 129.307C158.911 128.248 156.393 127.3 153.893 126.287C151.328 125.46 148.782 124.568 146.189 123.834C140.984 122.364 135.675 121.286 130.308 120.609C124.932 119.917 119.501 119.749 114.092 120.107C112.745 120.256 111.397 120.34 110.05 120.535C108.721 120.767 107.374 120.925 106.054 121.241C103.4 121.763 100.815 122.589 98.3503 123.704C100.913 122.937 103.542 122.412 106.203 122.133C107.522 121.929 108.86 121.864 110.18 121.743C111.509 121.659 112.838 121.613 114.167 121.548C119.487 121.467 124.807 121.768 130.085 122.449L134.044 122.96L137.984 123.657L139.954 123.983L141.905 124.41C143.216 124.698 144.517 124.977 145.827 125.246C148.429 125.85 151.012 126.538 153.624 127.161C156.207 127.867 158.772 128.647 161.383 129.307C201.602 135.905 240.846 160.633 243.475 159.973C246.115 159.314 248.428 138.544 248.428 133.201C248.428 127.867 249.413 117.766 257.331 117.766C265.239 117.766 264.254 124.689 264.254 124.689C249.414 128.648 283.704 131.621 293.926 132.931C304.148 134.251 298.544 130.302 298.544 130.302C298.544 130.302 301.509 127.133 304.687 131.073C305.679 132.344 306.347 133.836 306.635 135.423C306.924 137.009 306.823 138.641 306.341 140.18C305.328 143.562 303.832 148.692 302.828 152.716C301.174 159.314 295.245 206.79 293.266 211.409C291.287 216.018 250.408 228.22 163.362 221.956C156.309 220.85 149.284 219.68 142.259 218.509C135.243 217.31 128.226 216.083 121.266 214.661C117.781 213.964 114.297 213.24 110.849 212.413C107.383 211.623 103.944 210.746 100.534 209.783C97.1217 208.824 93.7597 207.695 90.4607 206.4C87.12 205.198 84.0088 203.435 81.2608 201.187C82.4716 202.512 83.8601 203.663 85.3868 204.607C86.8969 205.582 88.4674 206.46 90.089 207.236C93.344 208.752 96.6895 210.065 100.107 211.167C106.929 213.335 113.869 215.11 120.895 216.483C127.911 217.877 134.961 219.029 142.045 219.94C149.126 220.878 156.235 221.566 163.362 221.956C163.362 221.956 166.531 241.22 168.185 258.551H44.2012C44.3313 241.629 44.3592 219.206 43.8388 199.04C42.8538 160.141 43.8388 141.834 43.8388 141.834C45.6214 141.637 47.3821 141.276 49.0985 140.756C50.8177 140.264 52.4997 139.678 54.1817 139.074C57.5364 137.866 60.8074 136.454 64.0599 135.004C67.2938 133.526 70.4904 131.984 73.6407 130.32C76.791 128.675 79.9041 126.938 82.9149 125.023C79.5602 126.25 76.28 127.616 73.0181 129.019C69.7563 130.404 66.5318 131.872 63.2885 133.313L53.6334 137.736C50.3902 139.167 47.2214 140.71 43.8388 141.834C43.8388 141.834 27.5207 149.259 26.0339 130.46C24.5563 111.67 42.3613 71.1159 86.8644 74.5728ZM80.0155 135.626C78.3756 137.175 76.9449 138.93 75.7596 140.849C75.1741 141.806 74.6722 142.819 74.1426 143.823C73.6872 144.854 73.3156 145.913 72.8881 146.964C72.6863 147.49 72.5247 148.03 72.4049 148.58L71.9774 150.216C71.6891 151.303 71.4779 152.408 71.3455 153.524L71.011 156.033L70.9738 156.87L70.8344 161.061L70.8902 161.897L71.011 163.57C71.0853 164.685 71.1596 165.791 71.2804 166.897C71.6521 169.09 72.0052 171.283 72.4792 173.448C73.0832 175.585 73.6687 177.713 74.3377 179.813C74.0683 177.611 73.7244 175.446 73.3806 173.281C73.1204 171.106 72.9717 168.922 72.7208 166.757L72.6372 163.495L72.5907 161.869L72.5628 161.061L72.6186 160.252L72.7859 157.009L72.823 156.201L73.1854 153.803C73.7306 149.531 75.0234 145.388 77.0048 141.564C78.0308 139.669 79.2583 137.89 80.6661 136.258C82.0706 134.588 83.7147 133.135 85.5448 131.946C83.4923 132.825 81.6182 134.072 80.0155 135.626ZM56.5886 97.9906C57.2538 99.3903 58.3927 100.51 59.8038 101.15C60.5022 101.469 61.235 101.706 61.9876 101.856C62.7393 101.963 63.4963 102.028 64.2551 102.052C65.0078 102.014 65.7698 102.014 66.5132 101.921L68.7249 101.559C69.459 101.41 70.1653 101.197 70.8901 101.011L72.981 100.444C74.3441 100.088 75.733 99.8395 77.1349 99.7004C79.975 99.4356 82.8331 99.4263 85.6749 99.6726C91.4178 100.191 97.1086 101.179 102.69 102.628C105.496 103.334 108.303 104.096 111.081 104.923C113.878 105.713 116.629 106.624 119.398 107.544C114.134 105.007 108.674 102.897 103.071 101.234C97.4559 99.5011 91.6756 98.3582 85.8236 97.8233C82.8617 97.5881 79.8842 97.6316 76.9305 97.9534C75.4435 98.1446 73.9738 98.4522 72.5349 98.8734L68.3996 100.146L66.3274 100.592C65.6304 100.713 64.9335 100.741 64.2365 100.834C63.5395 100.881 62.8426 100.825 62.1549 100.806C61.4731 100.715 60.8032 100.55 60.1569 100.314C58.8422 99.8616 57.7318 98.9555 57.0253 97.7582C56.6602 97.1505 56.3847 96.4932 56.2075 95.8067C55.9984 95.113 55.8859 94.3938 55.873 93.6694C55.7113 95.1481 55.9589 96.6429 56.5886 97.9906Z" fill="url(#paint24_linear_111_76)"/>
<path d="M220.4 258.554C202.101 258.023 183.802 257.668 165.504 257.486C156.354 257.36 147.205 257.332 138.055 257.257L110.607 257.181L83.159 257.253C74.0096 257.33 64.8603 257.355 55.7109 257.482C37.412 257.662 19.1132 258.019 0.814453 258.554C19.1132 259.088 37.412 259.446 55.7109 259.626C64.8603 259.754 74.0096 259.778 83.159 259.855L110.607 259.927L138.055 259.851C147.205 259.777 156.354 259.749 165.504 259.622C183.802 259.441 202.101 259.085 220.4 258.554Z" fill="url(#paint25_linear_111_76)"/>
<path d="M166.369 54.806C162.781 54.806 162.775 49.2303 166.369 49.2303C169.957 49.2303 169.963 54.806 166.369 54.806Z" fill="url(#paint26_linear_111_76)"/>
<defs>
<linearGradient id="paint0_linear_111_76" x1="279.352" y1="58.6659" x2="176.718" y2="256.399" gradientUnits="userSpaceOnUse">
<stop stop-color="#9DE8EE"/>
<stop offset="0.0001" stop-color="#9DE8EE"/>
<stop offset="0.490049" stop-color="#FA7C0B"/>
<stop offset="1" stop-color="#9F8CED"/>
</linearGradient>
<linearGradient id="paint1_linear_111_76" x1="279.352" y1="58.6659" x2="176.718" y2="256.399" gradientUnits="userSpaceOnUse">
<stop stop-color="#9DE8EE"/>
<stop offset="0.0001" stop-color="#9DE8EE"/>
<stop offset="0.490049" stop-color="#FA7C0B"/>
<stop offset="1" stop-color="#9F8CED"/>
</linearGradient>
<linearGradient id="paint2_linear_111_76" x1="279.352" y1="58.6659" x2="176.718" y2="256.399" gradientUnits="userSpaceOnUse">
<stop stop-color="#9DE8EE"/>
<stop offset="0.0001" stop-color="#9DE8EE"/>
<stop offset="0.490049" stop-color="#FA7C0B"/>
<stop offset="1" stop-color="#9F8CED"/>
</linearGradient>
<linearGradient id="paint3_linear_111_76" x1="279.352" y1="58.6659" x2="176.718" y2="256.399" gradientUnits="userSpaceOnUse">
<stop stop-color="#9DE8EE"/>
<stop offset="0.0001" stop-color="#9DE8EE"/>
<stop offset="0.490049" stop-color="#FA7C0B"/>
<stop offset="1" stop-color="#9F8CED"/>
</linearGradient>
<linearGradient id="paint4_linear_111_76" x1="279.352" y1="58.6659" x2="176.718" y2="256.399" gradientUnits="userSpaceOnUse">
<stop stop-color="#9DE8EE"/>
<stop offset="0.0001" stop-color="#9DE8EE"/>
<stop offset="0.490049" stop-color="#FA7C0B"/>
<stop offset="1" stop-color="#9F8CED"/>
</linearGradient>
<linearGradient id="paint5_linear_111_76" x1="279.352" y1="58.6659" x2="176.718" y2="256.399" gradientUnits="userSpaceOnUse">
<stop stop-color="#9DE8EE"/>
<stop offset="0.0001" stop-color="#9DE8EE"/>
<stop offset="0.490049" stop-color="#FA7C0B"/>
<stop offset="1" stop-color="#9F8CED"/>
</linearGradient>
<linearGradient id="paint6_linear_111_76" x1="279.352" y1="58.6659" x2="176.718" y2="256.399" gradientUnits="userSpaceOnUse">
<stop stop-color="#9DE8EE"/>
<stop offset="0.0001" stop-color="#9DE8EE"/>
<stop offset="0.490049" stop-color="#FA7C0B"/>
<stop offset="1" stop-color="#9F8CED"/>
</linearGradient>
<linearGradient id="paint7_linear_111_76" x1="279.352" y1="58.6659" x2="176.718" y2="256.399" gradientUnits="userSpaceOnUse">
<stop stop-color="#9DE8EE"/>
<stop offset="0.0001" stop-color="#9DE8EE"/>
<stop offset="0.490049" stop-color="#FA7C0B"/>
<stop offset="1" stop-color="#9F8CED"/>
</linearGradient>
<linearGradient id="paint8_linear_111_76" x1="279.352" y1="58.6659" x2="176.718" y2="256.399" gradientUnits="userSpaceOnUse">
<stop stop-color="#9DE8EE"/>
<stop offset="0.0001" stop-color="#9DE8EE"/>
<stop offset="0.490049" stop-color="#FA7C0B"/>
<stop offset="1" stop-color="#9F8CED"/>
</linearGradient>
<linearGradient id="paint9_linear_111_76" x1="279.352" y1="58.6659" x2="176.718" y2="256.399" gradientUnits="userSpaceOnUse">
<stop stop-color="#9DE8EE"/>
<stop offset="0.0001" stop-color="#9DE8EE"/>
<stop offset="0.490049" stop-color="#FA7C0B"/>
<stop offset="1" stop-color="#9F8CED"/>
</linearGradient>
<linearGradient id="paint10_linear_111_76" x1="279.352" y1="58.6659" x2="176.718" y2="256.399" gradientUnits="userSpaceOnUse">
<stop stop-color="#9DE8EE"/>
<stop offset="0.0001" stop-color="#9DE8EE"/>
<stop offset="0.490049" stop-color="#FA7C0B"/>
<stop offset="1" stop-color="#9F8CED"/>
</linearGradient>
<linearGradient id="paint11_linear_111_76" x1="279.352" y1="58.6659" x2="176.718" y2="256.399" gradientUnits="userSpaceOnUse">
<stop stop-color="#9DE8EE"/>
<stop offset="0.0001" stop-color="#9DE8EE"/>
<stop offset="0.490049" stop-color="#FA7C0B"/>
<stop offset="1" stop-color="#9F8CED"/>
</linearGradient>
<linearGradient id="paint12_linear_111_76" x1="279.352" y1="58.6659" x2="176.718" y2="256.399" gradientUnits="userSpaceOnUse">
<stop stop-color="#9DE8EE"/>
<stop offset="0.0001" stop-color="#9DE8EE"/>
<stop offset="0.490049" stop-color="#FA7C0B"/>
<stop offset="1" stop-color="#9F8CED"/>
</linearGradient>
<linearGradient id="paint13_linear_111_76" x1="279.352" y1="58.6659" x2="176.718" y2="256.399" gradientUnits="userSpaceOnUse">
<stop stop-color="#9DE8EE"/>
<stop offset="0.0001" stop-color="#9DE8EE"/>
<stop offset="0.490049" stop-color="#FA7C0B"/>
<stop offset="1" stop-color="#9F8CED"/>
</linearGradient>
<linearGradient id="paint14_linear_111_76" x1="279.352" y1="58.6659" x2="176.718" y2="256.399" gradientUnits="userSpaceOnUse">
<stop stop-color="#9DE8EE"/>
<stop offset="0.0001" stop-color="#9DE8EE"/>
<stop offset="0.490049" stop-color="#FA7C0B"/>
<stop offset="1" stop-color="#9F8CED"/>
</linearGradient>
<linearGradient id="paint15_linear_111_76" x1="279.352" y1="58.6659" x2="176.718" y2="256.399" gradientUnits="userSpaceOnUse">
<stop stop-color="#9DE8EE"/>
<stop offset="0.0001" stop-color="#9DE8EE"/>
<stop offset="0.490049" stop-color="#FA7C0B"/>
<stop offset="1" stop-color="#9F8CED"/>
</linearGradient>
<linearGradient id="paint16_linear_111_76" x1="279.352" y1="58.6659" x2="176.718" y2="256.399" gradientUnits="userSpaceOnUse">
<stop stop-color="#9DE8EE"/>
<stop offset="0.0001" stop-color="#9DE8EE"/>
<stop offset="0.490049" stop-color="#FA7C0B"/>
<stop offset="1" stop-color="#9F8CED"/>
</linearGradient>
<linearGradient id="paint17_linear_111_76" x1="279.352" y1="58.6659" x2="176.718" y2="256.399" gradientUnits="userSpaceOnUse">
<stop stop-color="#9DE8EE"/>
<stop offset="0.0001" stop-color="#9DE8EE"/>
<stop offset="0.490049" stop-color="#FA7C0B"/>
<stop offset="1" stop-color="#9F8CED"/>
</linearGradient>
<linearGradient id="paint18_linear_111_76" x1="279.352" y1="58.6659" x2="176.718" y2="256.399" gradientUnits="userSpaceOnUse">
<stop stop-color="#9DE8EE"/>
<stop offset="0.0001" stop-color="#9DE8EE"/>
<stop offset="0.490049" stop-color="#FA7C0B"/>
<stop offset="1" stop-color="#9F8CED"/>
</linearGradient>
<linearGradient id="paint19_linear_111_76" x1="279.352" y1="58.6659" x2="176.718" y2="256.399" gradientUnits="userSpaceOnUse">
<stop stop-color="#9DE8EE"/>
<stop offset="0.0001" stop-color="#9DE8EE"/>
<stop offset="0.490049" stop-color="#FA7C0B"/>
<stop offset="1" stop-color="#9F8CED"/>
</linearGradient>
<linearGradient id="paint20_linear_111_76" x1="279.352" y1="58.6659" x2="176.718" y2="256.399" gradientUnits="userSpaceOnUse">
<stop stop-color="#9DE8EE"/>
<stop offset="0.0001" stop-color="#9DE8EE"/>
<stop offset="0.490049" stop-color="#FA7C0B"/>
<stop offset="1" stop-color="#9F8CED"/>
</linearGradient>
<linearGradient id="paint21_linear_111_76" x1="279.352" y1="58.6659" x2="176.718" y2="256.399" gradientUnits="userSpaceOnUse">
<stop stop-color="#9DE8EE"/>
<stop offset="0.0001" stop-color="#9DE8EE"/>
<stop offset="0.490049" stop-color="#FA7C0B"/>
<stop offset="1" stop-color="#9F8CED"/>
</linearGradient>
<linearGradient id="paint22_linear_111_76" x1="279.352" y1="58.6659" x2="176.718" y2="256.399" gradientUnits="userSpaceOnUse">
<stop stop-color="#9DE8EE"/>
<stop offset="0.0001" stop-color="#9DE8EE"/>
<stop offset="0.490049" stop-color="#FA7C0B"/>
<stop offset="1" stop-color="#9F8CED"/>
</linearGradient>
<linearGradient id="paint23_linear_111_76" x1="279.352" y1="58.6659" x2="176.718" y2="256.399" gradientUnits="userSpaceOnUse">
<stop stop-color="#9DE8EE"/>
<stop offset="0.0001" stop-color="#9DE8EE"/>
<stop offset="0.490049" stop-color="#FA7C0B"/>
<stop offset="1" stop-color="#9F8CED"/>
</linearGradient>
<linearGradient id="paint24_linear_111_76" x1="279.352" y1="58.6659" x2="176.718" y2="256.399" gradientUnits="userSpaceOnUse">
<stop stop-color="#9DE8EE"/>
<stop offset="0.0001" stop-color="#9DE8EE"/>
<stop offset="0.490049" stop-color="#FA7C0B"/>
<stop offset="1" stop-color="#9F8CED"/>
</linearGradient>
<linearGradient id="paint25_linear_111_76" x1="279.352" y1="58.6659" x2="176.718" y2="256.399" gradientUnits="userSpaceOnUse">
<stop stop-color="#9DE8EE"/>
<stop offset="0.0001" stop-color="#9DE8EE"/>
<stop offset="0.490049" stop-color="#FA7C0B"/>
<stop offset="1" stop-color="#9F8CED"/>
</linearGradient>
<linearGradient id="paint26_linear_111_76" x1="279.352" y1="58.6659" x2="176.718" y2="256.399" gradientUnits="userSpaceOnUse">
<stop stop-color="#9DE8EE"/>
<stop offset="0.0001" stop-color="#9DE8EE"/>
<stop offset="0.490049" stop-color="#FA7C0B"/>
<stop offset="1" stop-color="#9F8CED"/>
</linearGradient>
</defs>
</svg>