<svg xmlns="http://www.w3.org/2000/svg" xmlns:xlink="http://www.w3.org/1999/xlink" id="Layer_1" data-name="Layer 1" viewBox="0 0 3071 429"><defs fill="#ffffff"><style>.cls-1{fill:url(#linear-gradient);}.cls-2{fill:#ffffff;}</style><linearGradient id="linear-gradient" x1="56.28" y1="214.5" x2="385.79" y2="214.5" gradientUnits="userSpaceOnUse" fill="#ffffff"><stop offset="0" stop-color="#571c08" fill="#ffffff"/><stop offset="0.24" stop-color="#b06929" fill="#ffffff"/><stop offset="0.5" stop-color="#de8f3e" fill="#ffffff"/><stop offset="0.77" stop-color="#9d5a21" fill="#ffffff"/><stop offset="1" stop-color="#5c220b" fill="#ffffff"/></linearGradient></defs><path class="cls-1" d="M342.27,261.19l-20.77-13-41.67-26-93.56-58.44A59.37,59.37,0,0,1,220,153.32a60.22,60.22,0,0,1,52.21,30.43l39.72-24.49c-18.67-31.72-52.82-53-91.93-53a105.94,105.94,0,0,0-75.26,31.41l-20.81-13A129.59,129.59,0,0,1,220,82.1c47.75,0,89.52,25.92,112.28,64.62l43.11-26.57C343.71,66.72,286,31,220,31A182.12,182.12,0,0,0,56.28,135.71l43.3,27.09,20.63,12.86a108.58,108.58,0,0,0-7.11,38.84C113.1,274.29,161,322.7,220,322.7a105.78,105.78,0,0,0,79-35.36l20.58,12.87A129.52,129.52,0,0,1,220,346.9c-46.88,0-88-25-111-62.53L65.81,310.94C97.72,363.2,154.82,398,220,398c58.07,0,109.73-27.69,142.9-70.71a180.35,180.35,0,0,0,22.94-38.93ZM220,275.68c-33.36,0-60.39-27.41-60.39-61.18A62.58,62.58,0,0,1,161,201.17l97.18,60.71A59.6,59.6,0,0,1,220,275.68Z" fill="#ffffff"/><path class="cls-2" d="M564.47,159c-14.06,0-23.61,5-23.61,15.12,0,34.21,98.93,15.11,98.67,82,0,36.34-31.56,56-72.68,56-30.5,0-61-11.67-82-29.44l16.71-34.21c19.1,17,46.16,27.84,65.78,27.84,17.25,0,27.59-6.36,27.59-17.76,0-35-98.93-14.6-98.93-80.37,0-33.69,28.91-54.91,71.87-54.91,26,0,52,8,70.56,20.16l-16.18,34.75C602.66,166.45,579.32,159,564.47,159Z" fill="#ffffff"/><path class="cls-2" d="M800.25,310.74l-53.31-75.6-26.79,29.71v45.89H678.24V125.07h41.91v84.35l77.18-84.35h48.55l-69.76,77.45,74.53,108.22Z" fill="#ffffff"/><path class="cls-2" d="M1005.54,274.66H919.6L905,310.74H861.78l80.63-185.67h43.24L1065,310.74h-44.82ZM992,241l-29.17-72.15L933.39,241Z" fill="#ffffff"/><path class="cls-2" d="M1131.78,125.07,1222,244.43V125.07h39.79V310.74h-38.2l-89.91-119.1v119.1h-40.06V125.07Z" fill="#ffffff"/><path class="cls-2" d="M1488.25,217.9c0,54.64-40.58,92.84-99.2,92.84h-77.18V125.07h78.77C1448.2,125.07,1488.25,163,1488.25,217.9Zm-42.7.27c0-34.22-23.87-57.82-55.7-57.82h-36.08V275.46h37.94C1422.74,275.46,1445.55,252.12,1445.55,218.17Z" fill="#ffffff"/><path class="cls-2" d="M1666.48,125.07v34.75H1567v40.32h89.38v34.74H1567V276H1669.4v34.75H1525.11V125.07Z" fill="#ffffff"/><path class="cls-2" d="M1825.61,310.74l-29.44-53.05h-42.7v53.05h-41.91V125.07h80.63c48.54,0,76.13,23.34,76.13,64.45,0,28.65-12.2,49.34-34.75,59.94l39.52,61.28Zm-72.14-88.06h38.72c23.08,0,36.34-10.61,36.34-31.83,0-20.69-13.26-31-36.34-31h-38.72Z" fill="#ffffff"/><path class="cls-2" d="M2000.13,143.9c-41.91,0-75.59,32.63-75.59,73.74,0,40.85,33.68,74,75.59,74,20.42,0,40.32-8.48,54.91-22.28l13,14.05c-18.3,17.25-43.23,28.13-69,28.13-53.58,0-96-41.38-96-93.9,0-52,43-93.1,96.82-93.1a100.37,100.37,0,0,1,67.9,27.05L2055,167C2040.71,152.66,2020.55,143.9,2000.13,143.9Z" fill="#ffffff"/><path class="cls-2" d="M2231.94,263.26H2130.89l-20.69,47.48h-22.55l83.29-185.67h22l83,185.67H2252.9Zm-8.48-19.62-42.18-95.5-41.64,95.5Z" fill="#ffffff"/><path class="cls-2" d="M2456.59,187.4c0,40.85-26.52,64.45-72.41,64.45h-48.54v58.89h-21.22V125.07h69.76C2430.07,125.07,2456.59,147.88,2456.59,187.4Zm-20.42.53c0-28.38-19.36-43.23-52.79-43.23h-47.74v87.53h47.74C2416.81,232.23,2436.17,217.11,2436.17,187.93Z" fill="#ffffff"/><path class="cls-2" d="M2522.36,125.07V310.74h-21.22V125.07Z" fill="#ffffff"/><path class="cls-2" d="M2705.1,125.07V144.7h-60.74v166h-21.22v-166h-60.47V125.07Z" fill="#ffffff"/><path class="cls-2" d="M2844.88,263.26H2743.82l-20.69,47.48h-22.54l83.29-185.67h22l83,185.67h-23.07Zm-8.49-19.62-42.17-95.5-41.64,95.5Z" fill="#ffffff"/><path class="cls-2" d="M2948.57,125.07v166H3030v19.63H2927.35V125.07Z" fill="#ffffff"/></svg>