<svg id="Layer_1" data-name="Layer 1" xmlns="http://www.w3.org/2000/svg" xmlns:xlink="http://www.w3.org/1999/xlink" viewBox="0 0 619.52 704"><defs><style>.cls-1{fill:url(#linear-gradient);}</style><linearGradient id="linear-gradient" x1="44" y1="352" x2="575.52" y2="352" gradientUnits="userSpaceOnUse"><stop offset="0" stop-color="#571c08"/><stop offset="0.24" stop-color="#b06929"/><stop offset="0.5" stop-color="#de8f3e"/><stop offset="0.77" stop-color="#9d5a21"/><stop offset="1" stop-color="#5c220b"/></linearGradient></defs><path class="cls-1" d="M505.31,427.31l-33.5-21-67.22-42L253.67,270.09A95.73,95.73,0,0,1,308,253.31a97.15,97.15,0,0,1,84.23,49.08L456.3,262.9c-30.12-51.18-85.2-85.43-148.3-85.43a170.86,170.86,0,0,0-121.4,50.66l-33.57-21c38.52-42.27,93.67-68.72,155-68.72,77,0,144.4,41.82,181.12,104.24l69.54-42.87C507.63,113.63,414.49,56,308,56,217.4,56,136.4,97.74,82.89,163.31A292.18,292.18,0,0,0,44,224.91l69.84,43.69,33.27,20.75A175.11,175.11,0,0,0,135.65,352c0,96.44,77.18,174.53,172.35,174.53a170.62,170.62,0,0,0,127.39-57l33.2,20.76C430,536.34,372.37,565.57,308,565.57c-75.61,0-141.93-40.32-179.1-100.87L59.36,507.57C110.84,591.87,202.94,648,308,648c93.67,0,177-44.66,230.51-114.06a291.61,291.61,0,0,0,37-62.79ZM308,450.69c-53.8,0-97.42-44.21-97.42-98.69a101.12,101.12,0,0,1,2.33-21.51l156.76,97.94A96.19,96.19,0,0,1,308,450.69Z"/></svg>