<svg id="Layer_1" data-name="Layer 1" xmlns="http://www.w3.org/2000/svg" xmlns:xlink="http://www.w3.org/1999/xlink" viewBox="0 0 3042 1592"><defs><style>.cls-1{fill:url(#linear-gradient);}.cls-2{fill:#1e1f21;}</style><linearGradient id="linear-gradient" x1="981.07" y1="536.96" x2="1873.6" y2="536.96" gradientUnits="userSpaceOnUse"><stop offset="0" stop-color="#571c08"/><stop offset="0.24" stop-color="#b06929"/><stop offset="0.5" stop-color="#de8f3e"/><stop offset="0.77" stop-color="#9d5a21"/><stop offset="1" stop-color="#5c220b"/></linearGradient></defs><path class="cls-1" d="M1755.7,663.42l-56.25-35.23-112.87-70.47L1333.15,399.43a160.75,160.75,0,0,1,91.23-28.19c60.28,0,113.13,33.09,141.44,82.42l107.58-66.32c-50.58-85.94-143.07-143.44-249-143.44-79.52,0-151.63,32.59-203.85,85.06l-56.37-35.23c64.68-71,157.29-115.39,260.22-115.39,129.36,0,242.48,70.21,304.14,175l116.77-72c-85.69-144.7-242.1-241.47-420.91-241.47-152.13,0-288.15,70.09-378,180.2a489.73,489.73,0,0,0-65.31,103.43l117.28,73.36,55.87,34.86A294,294,0,0,0,1135,537C1135,698.91,1264.57,830,1424.38,830c84.81,0,161.07-36.88,213.92-95.76L1694,769.12c-64.8,77.39-161.57,126.46-269.66,126.46-127,0-238.32-67.69-300.74-169.37l-116.77,72C1093.32,939.75,1248,1034,1424.38,1034c157.29,0,297.22-75,387.06-191.52A488.62,488.62,0,0,0,1873.6,737Zm-331.32,39.26c-90.35,0-163.58-74.24-163.58-165.72a169.52,169.52,0,0,1,3.9-36.11l263.24,164.46A161.51,161.51,0,0,1,1424.38,702.68Z"/><path class="cls-2" d="M133.35,1314c-16.36,0-27.47,5.86-27.47,17.59,0,39.8,115.08,17.58,114.77,95.34,0,42.26-36.71,65.09-84.53,65.09-35.47,0-71-13.58-95.33-34.24L60.22,1418c22.22,19.75,53.69,32.39,76.52,32.39,20,0,32.08-7.41,32.08-20.67,0-40.72-115.08-17-115.08-93.49,0-39.18,33.63-63.85,83.61-63.85,30.24,0,60.47,9.25,82.07,23.44l-18.82,40.41C177.77,1322.63,150.62,1314,133.35,1314Z"/><path class="cls-2" d="M407.59,1490.46l-62-87.93-31.16,34.56v53.37H265.68v-216h48.74v98.11l89.78-98.11h56.46l-81.14,90.09,86.69,125.88Z"/><path class="cls-2" d="M646.36,1448.5h-100l-17,42H479.14l93.8-216h50.28l92.24,216H663.33Zm-15.74-39.18-33.93-83.92-34.25,83.92Z"/><path class="cls-2" d="M793.18,1274.49l104.9,138.84V1274.49h46.28v216H899.94L795.35,1351.94v138.52H748.76v-216Z"/><path class="cls-2" d="M1207.81,1382.47c0,63.56-47.21,108-115.39,108h-89.78v-216h91.63C1161.22,1274.49,1207.81,1318.61,1207.81,1382.47Zm-49.68.32c0-39.81-27.76-67.27-64.79-67.27h-41.95v133.91h44.12C1131.61,1449.43,1158.13,1422.28,1158.13,1382.79Z"/><path class="cls-2" d="M1415.1,1274.49v40.42H1299.4v46.89h104v40.42h-104v47.83h119.1v40.41H1250.65v-216Z"/><path class="cls-2" d="M1600.18,1490.46l-34.24-61.71h-49.67v61.71h-48.76v-216h93.8c56.46,0,88.55,27.15,88.55,75,0,33.33-14.2,57.39-40.42,69.73l46,71.27ZM1516.27,1388h45c26.84,0,42.27-12.35,42.27-37,0-24.06-15.43-36.09-42.27-36.09h-45Z"/><path class="cls-2" d="M1803.16,1296.4c-48.75,0-87.93,37.95-87.93,85.77,0,47.51,39.18,86.07,87.93,86.07,23.76,0,46.9-9.87,63.87-25.91l15.12,16.35c-21.29,20.06-50.29,32.7-80.22,32.7-62.33,0-111.69-48.12-111.69-109.21,0-60.48,50-108.29,112.61-108.29a116.77,116.77,0,0,1,79,31.46l-14.8,17.89C1850.36,1306.58,1826.92,1296.4,1803.16,1296.4Z"/><path class="cls-2" d="M2072.8,1435.23H1955.24l-24.07,55.23H1905l96.88-216h25.61l96.56,216h-26.84Zm-9.88-22.83-49.06-111.07-48.43,111.07Z"/><path class="cls-2" d="M2334.07,1347c0,47.52-30.85,75-84.23,75h-56.45v68.5H2168.7v-216h81.14C2303.22,1274.49,2334.07,1301,2334.07,1347Zm-23.75.62c0-33-22.53-50.29-61.4-50.29h-55.53v101.82h55.53C2287.79,1399.14,2310.32,1381.55,2310.32,1347.61Z"/><path class="cls-2" d="M2410.56,1274.49v216h-24.69v-216Z"/><path class="cls-2" d="M2623.11,1274.49v22.83h-70.64v193.14h-24.68V1297.32h-70.35v-22.83Z"/><path class="cls-2" d="M2785.69,1435.23H2668.14l-24.07,55.23h-26.22l96.88-216h25.6l96.57,216h-26.85Zm-9.87-22.83-49.06-111.07-48.44,111.07Z"/><path class="cls-2" d="M2906.28,1274.49v193.13H3001v22.84H2881.6v-216Z"/></svg>